<svg xmlns="http://www.w3.org/2000/svg" width="560" height="160" viewBox="0 0 560 160" role="img" aria-labelledby="title desc">
<title id="title">PRISM-RMS</title><desc id="desc">Review Management System. A dimensional prism surrounded by four connected component blocks.</desc>
<defs><linearGradient id="panel" x2="1" y2="1"><stop stop-color="#111827"/><stop offset="1" stop-color="#334155"/></linearGradient></defs>
<rect x="22" y="20" width="120" height="120" rx="28" fill="url(#panel)"/>
<g fill="none" stroke="#64748b" stroke-width="2.5"><path d="M49 47L70 67M115 47L97 64M49 113L65 98M115 113L102 99"/></g>
<rect x="38" y="36" width="22" height="22" rx="6" fill="#6d9fd0"/><rect x="104" y="36" width="22" height="22" rx="6" fill="#58a99d"/>
<rect x="38" y="102" width="22" height="22" rx="6" fill="#c7a260"/><rect x="104" y="102" width="22" height="22" rx="6" fill="#cbd5e1"/>
<g stroke="#e2e8f0" stroke-width="2" stroke-linejoin="round">
<path d="M80 55L94 48L115 94L100 104Z" fill="#6f8fa8"/>
<path d="M59 104L80 55L100 104Z" fill="#dbe8ee"/>
<path d="M59 104H100L115 94H73Z" fill="#91afba"/>
</g>
<path d="M65 99L80 64L94 99" fill="none" stroke="#f8fafc" stroke-width="1.5" opacity=".65"/>
<g font-family="Avenir Next, Arial, sans-serif">
<text x="165" y="74" font-size="42" font-weight="800" fill="#0f172a" letter-spacing="-.7">PRISM-RMS</text>
<text x="167" y="103" font-size="21" font-weight="600" fill="#475569">Review Management System</text>
<text x="168" y="127" font-size="12" font-weight="600" letter-spacing="1.2" fill="#64748b">TRACE · ARGUS · QUEST · SPARK</text>
</g></svg>